<svg xmlns="http://www.w3.org/2000/svg" viewBox="0 0 1600 1100" role="img"><title>Cypress Command light application specification plate</title><rect x="0" y="0" width="1600" height="1100" fill="#F4EFE2" stroke="none"/><text x="48" y="56" font-family="Archivo" font-size="18" fill="#1E1B16">CYPRESS COMMAND</text><text x="48" y="126" font-family="Besley" font-size="48" fill="#1E1B16">One system. Serious work.</text><text x="950" y="55" font-family="Courier Prime" font-size="14" fill="#5C554A">V1 SPECIFICATION PLATE / ILLUSTRATIVE / LIGHT</text><rect x="48" y="182" width="480" height="342" fill="#F4EFE2" stroke="#827765"/><text x="68" y="210" font-family="Courier Prime" font-size="13" fill="#A44E12">01 / WEBSITE</text><text x="72" y="278" font-family="Besley" font-size="34" fill="#1E1B16">Practical systems.</text><text x="72" y="326" font-family="Besley" font-size="34" fill="#1E1B16">Smarter operations.</text><text x="72" y="371" font-family="Archivo" font-size="17" fill="#1E1B16">People. Systems. Practical progress.</text><rect x="72" y="410" width="188" height="46" fill="#A44E12" stroke="none"/><text x="86" y="440" font-family="Archivo" font-size="16" fill="#F4EFE2">Explore the approach</text><rect x="558" y="182" width="480" height="342" fill="#F4EFE2" stroke="#827765"/><text x="578" y="210" font-family="Courier Prime" font-size="13" fill="#A44E12">02 / PROPOSAL</text><rect x="582" y="247" width="5" height="240" fill="#A44E12" stroke="none"/><text x="608" y="273" font-family="Courier Prime" font-size="13" fill="#5C554A">PROPOSAL / DRAFT</text><text x="608" y="327" font-family="Besley" font-size="34" fill="#1E1B16">An operating</text><text x="608" y="372" font-family="Besley" font-size="34" fill="#1E1B16">system for work.</text><text x="608" y="451" font-family="Courier Prime" font-size="16" fill="#1E1B16">[Client] / [Date] / v1</text><rect x="1068" y="182" width="480" height="342" fill="#F4EFE2" stroke="#827765"/><text x="1088" y="210" font-family="Courier Prime" font-size="13" fill="#A44E12">03 / WORKFLOW</text><rect x="1092" y="289" width="94" height="103" fill="#EAE2CD" stroke="#827765"/><text x="1104" y="319" font-family="Besley" font-size="24" fill="#A44E12">01</text><text x="1104" y="356" font-family="Archivo" font-size="14" fill="#1E1B16">Assess</text><rect x="1201" y="289" width="94" height="103" fill="#EAE2CD" stroke="#827765"/><text x="1213" y="319" font-family="Besley" font-size="24" fill="#A44E12">02</text><text x="1213" y="356" font-family="Archivo" font-size="14" fill="#1E1B16">Design</text><rect x="1310" y="289" width="94" height="103" fill="#EAE2CD" stroke="#827765"/><text x="1322" y="319" font-family="Besley" font-size="24" fill="#A44E12">03</text><text x="1322" y="356" font-family="Archivo" font-size="14" fill="#1E1B16">Install</text><rect x="1419" y="289" width="94" height="103" fill="#EAE2CD" stroke="#827765"/><text x="1431" y="319" font-family="Besley" font-size="24" fill="#A44E12">04</text><text x="1431" y="356" font-family="Archivo" font-size="14" fill="#1E1B16">Operate</text><text x="1092" y="449" font-family="Courier Prime" font-size="13" fill="#5C554A">HUMAN REVIEW AT EVERY HANDOFF</text><rect x="48" y="557" width="480" height="342" fill="#F4EFE2" stroke="#827765"/><text x="68" y="585" font-family="Courier Prime" font-size="13" fill="#A44E12">04 / DASHBOARD</text><text x="72" y="644" font-family="Besley" font-size="28" fill="#1E1B16">Operational overview</text><text x="72" y="675" font-family="Courier Prime" font-size="12" fill="#5C554A">SAMPLE LAYOUT / NO LIVE DATA</text><rect x="72" y="702" width="132" height="74" fill="#EAE2CD" stroke="none"/><text x="84" y="728" font-family="Archivo" font-size="13" fill="#1E1B16">Scope</text><text x="84" y="755" font-family="Courier Prime" font-size="12" fill="#1E1B16">Not connected</text><rect x="217" y="702" width="132" height="74" fill="#EAE2CD" stroke="none"/><text x="229" y="728" font-family="Archivo" font-size="13" fill="#1E1B16">Source</text><text x="229" y="755" font-family="Courier Prime" font-size="12" fill="#1E1B16">Not connected</text><rect x="362" y="702" width="132" height="74" fill="#EAE2CD" stroke="none"/><text x="374" y="728" font-family="Archivo" font-size="13" fill="#1E1B16">Refresh</text><text x="374" y="755" font-family="Courier Prime" font-size="12" fill="#1E1B16">Not connected</text><text x="72" y="837" font-family="Archivo" font-size="17" fill="#1E1B16">Connect a verified source to begin.</text><rect x="558" y="557" width="480" height="342" fill="#F4EFE2" stroke="#827765"/><text x="578" y="585" font-family="Courier Prime" font-size="13" fill="#A44E12">05 / ARTICLE</text><text x="582" y="656" font-family="Besley" font-size="32" fill="#1E1B16">Ideas that survive</text><text x="582" y="700" font-family="Besley" font-size="32" fill="#1E1B16">the next tool.</text><text x="582" y="742" font-family="Courier Prime" font-size="12" fill="#5C554A">FIELD NOTES / [AUTHOR] / [DATE]</text><rect x="582" y="775" width="405" height="2" fill="#C9BFA8" stroke="none"/><rect x="582" y="792" width="370" height="2" fill="#C9BFA8" stroke="none"/><rect x="582" y="809" width="405" height="2" fill="#C9BFA8" stroke="none"/><rect x="582" y="826" width="370" height="2" fill="#C9BFA8" stroke="none"/><rect x="1068" y="557" width="480" height="342" fill="#F4EFE2" stroke="#827765"/><text x="1088" y="585" font-family="Courier Prime" font-size="13" fill="#A44E12">06 / PRESENTATION</text><text x="1092" y="666" font-family="Besley" font-size="34" fill="#1E1B16">From complexity</text><text x="1092" y="716" font-family="Besley" font-size="34" fill="#1E1B16">to clarity.</text><rect x="1092" y="750" width="64" height="5" fill="#A44E12" stroke="none"/><text x="1092" y="818" font-family="Courier Prime" font-size="14" fill="#1E1B16">01 People   02 Process   03 Systems</text><rect x="48" y="967" width="168" height="45" fill="#F4EFE2" stroke="#C9BFA8"/><text x="48" y="1036" font-family="Courier Prime" font-size="13" fill="#1E1B16">canvas</text><rect x="236" y="967" width="168" height="45" fill="#EAE2CD" stroke="#C9BFA8"/><text x="236" y="1036" font-family="Courier Prime" font-size="13" fill="#1E1B16">surface</text><rect x="424" y="967" width="168" height="45" fill="#1E1B16" stroke="#C9BFA8"/><text x="424" y="1036" font-family="Courier Prime" font-size="13" fill="#1E1B16">text</text><rect x="612" y="967" width="168" height="45" fill="#5C554A" stroke="#C9BFA8"/><text x="612" y="1036" font-family="Courier Prime" font-size="13" fill="#1E1B16">muted</text><rect x="800" y="967" width="168" height="45" fill="#A44E12" stroke="#C9BFA8"/><text x="800" y="1036" font-family="Courier Prime" font-size="13" fill="#1E1B16">action</text><rect x="988" y="967" width="168" height="45" fill="#49573C" stroke="#C9BFA8"/><text x="988" y="1036" font-family="Courier Prime" font-size="13" fill="#1E1B16">success</text><rect x="1176" y="967" width="168" height="45" fill="#8F6D0C" stroke="#C9BFA8"/><text x="1176" y="1036" font-family="Courier Prime" font-size="13" fill="#1E1B16">warning</text><rect x="1364" y="967" width="168" height="45" fill="#8A2F1F" stroke="#C9BFA8"/><text x="1364" y="1036" font-family="Courier Prime" font-size="13" fill="#1E1B16">danger</text></svg>